<?xml version="1.0" standalone="no"?>
<!DOCTYPE svg PUBLIC "-//W3C//DTD SVG 20010904//EN"
 "http://www.w3.org/TR/2001/REC-SVG-20010904/DTD/svg10.dtd">
<svg version="1.0" xmlns="http://www.w3.org/2000/svg"
 width="256.000000pt" height="256.000000pt" viewBox="0 0 256.000000 256.000000"
 preserveAspectRatio="xMidYMid meet">

<g transform="translate(0.000000,256.000000) scale(0.100000,-0.100000)"
fill="#000000" stroke="none">
<path d="M1883 2382 c-5 -9 -29 -40 -51 -69 l-41 -52 -85 35 c-166 68 -221 78
-426 78 -158 0 -196 -3 -262 -22 -217 -60 -362 -143 -521 -300 -291 -286 -395
-724 -265 -1122 54 -168 144 -308 284 -447 l104 -102 -50 -58 c-27 -32 -50
-61 -50 -64 0 -10 104 -76 186 -117 187 -94 358 -134 569 -135 352 -1 655 124
906 373 216 215 337 473 370 788 36 348 -92 718 -341 985 -71 76 -203 182
-278 225 -35 19 -39 20 -49 4z m-183 -531 c36 -12 98 -41 139 -64 71 -40 76
-45 108 -115 96 -206 173 -528 173 -721 0 -55 -1 -56 -60 -113 -70 -66 -160
-113 -258 -133 -107 -23 -113 -22 -160 36 -23 29 -42 55 -42 59 0 3 24 16 54
29 61 25 161 93 175 119 6 12 -21 2 -88 -30 -53 -27 -141 -60 -196 -74 -136
-36 -348 -38 -469 -5 -95 25 -206 79 -260 125 -39 32 -40 33 -26 66 14 35 66
100 79 100 4 0 26 -18 49 -40 43 -41 92 -57 136 -46 37 9 84 53 98 91 l12 35
116 0 115 -1 21 -42 c52 -107 181 -117 245 -21 10 16 19 36 19 45 0 9 24 34
53 55 33 25 63 59 82 94 29 54 30 58 33 220 l4 165 -64 41 c-78 51 -144 85
-225 114 -35 13 -60 27 -56 33 9 15 119 2 193 -22z"/>
</g>
</svg>
